<?xml version="1.0" encoding="utf-8"?>
<!-- Generator: Adobe Illustrator 26.3.1, SVG Export Plug-In . SVG Version: 6.00 Build 0)  -->
<svg version="1.1" id="Warstwa_1" xmlns="http://www.w3.org/2000/svg" xmlns:xlink="http://www.w3.org/1999/xlink" x="0px" y="0px"
	 viewBox="0 0 430 430" style="enable-background:new 0 0 430 430;" xml:space="preserve">
<style type="text/css">
	.Styl_x0020_grafiki_x0020_1985{opacity:0.5;fill:#eee966;}
	.Styl_x0020_grafiki_x0020_1986{opacity:0.5;fill:#3a3347;}
	.Styl_x0020_grafiki_x0020_1987{fill:#000000;}
	.Styl_x0020_grafiki_x0020_1989{fill:#3a3347;}
	.Styl_x0020_grafiki_x0020_1990{opacity:0.5;fill:#f9c9c0;}
	.Styl_x0020_grafiki_x0020_1991{fill:#f9c9c0;}
	.st0{fill:#000000;}
	.st1{opacity:0.5;fill:#000000;}
	.st2{fill:#121331;}
	.st3{fill:#3a3347;}
	.st4{fill:#e83a30;}
	.st5{opacity:0.5;fill:#e83a30;}
	.st6{opacity:0.5;fill:#3a3347;}
	.st7{fill:none;stroke:#121331;stroke-width:7;stroke-linecap:round;stroke-linejoin:round;stroke-miterlimit:10;}
	.st8{opacity:0.5;}
	.st9{fill:#EBE6EF;}
	.st10{opacity:0.5;fill:#EBE6EF;}
	.st11{fill:#f9c9c0;}
	.st12{fill:#2CA58D;}
	.st13{opacity:0.5;fill:#2CA58D;}
	.st14{opacity:0.5;fill:#f9c9c0;}
	.st15{fill:#F24C00;}
	.st16{opacity:0.5;fill:#F24C00;}
	.st17{fill:#eee966;}
	.st18{opacity:0.5;fill:#eee966;}
	.st19{fill:#FFFFFF;}
	.st20{fill:#F7F8F9;}
	.st21{fill:#FBFAFC;}
	.st22{fill:#FFC738;}
	.st23{opacity:0.5;fill:#FFC738;}
	.st24{fill:#FCFCFC;}
	.st25{fill:#92140C;}
	.st26{fill:#F28BA8;}
	.st27{opacity:0.5;fill:#F28BA8;}
	.st28{opacity:0.25;fill:#f9c9c0;}
	.st29{opacity:0.5;fill:#92140C;}
	.st30{opacity:0.1;fill:#3a3347;}
	.st31{fill:none;stroke:#08A88A;stroke-width:12;stroke-linecap:round;stroke-linejoin:round;stroke-miterlimit:10;}
	.st32{fill:none;stroke:#121331;stroke-width:12;stroke-linecap:round;stroke-linejoin:round;stroke-miterlimit:10;}
	.st33{fill:none;stroke:#000000;stroke-width:7;stroke-linecap:round;stroke-linejoin:round;stroke-miterlimit:10;}
	.st34{fill:#08A88A;}
	.st35{fill:none;stroke:#EBE6EF;stroke-width:7;stroke-linecap:round;stroke-linejoin:round;stroke-miterlimit:10;}
	.st36{fill:#08A789;}
	.st37{fill:none;stroke:#F28BA8;stroke-width:7;stroke-linecap:round;stroke-linejoin:round;stroke-miterlimit:10;}
	.st38{fill:none;stroke:#FFC738;stroke-width:7;stroke-linecap:round;stroke-linejoin:round;stroke-miterlimit:10;}
	.st39{fill:none;stroke:#3a3347;stroke-width:7;stroke-linecap:round;stroke-linejoin:round;stroke-miterlimit:10;}
</style>
<path class="Styl_x0020_grafiki_x0020_1989" d="M148.04,378.17c0.02-0.01,0.04-0.01,0.04,0h38.88l27.97-116.49l27.97,116.49h38.87
	c0.01-0.01,0.02-0.01,0.05,0h0.07c-0.67-3.32-26.93-159.2-26.93-159.2l-79.86-0.01c0,0-26.45,155.9-27.12,159.21H148.04z"/>
<path class="Styl_x0020_grafiki_x0020_1987" d="M148.08,378.17c0.26,0.19-24.35,11.69-16.52,23.6h47.37c1.39,0,2.59-0.95,2.92-2.3
	l5.11-21.3H148.08z"/>
<path class="st0" d="M281.78,378.17c-0.26,0.19,24.35,11.69,16.52,23.6h-49.73l-5.67-23.6H281.78z"/>
<path class="st1" d="M158.21,378.17h-10.07c0.26,0.19-24.35,11.69-16.52,23.6c3.35,0,6.71,0,10.07,0
	C133.86,389.86,158.47,378.36,158.21,378.17z"/>
<g class="st8">
	<g>
		<path class="st3" d="M158.16,378.17h0.04l0,0C158.2,378.16,158.19,378.16,158.16,378.17z"/>
		<path class="st3" d="M148.1,378.17c0.02-0.01,0.04-0.01,0.04,0l0,0h9.96c0.67-3.31,27.1-159.1,27.12-159.21l-10.07,0
			c0,0-26.45,155.9-27.12,159.21H148.1z"/>
	</g>
	<g>
		<path class="st3" d="M158.16,378.17h0.04l0,0C158.2,378.16,158.19,378.16,158.16,378.17z"/>
		<path class="st3" d="M148.1,378.17c0.02-0.01,0.04-0.01,0.04,0l0,0h9.96c0.67-3.31,27.1-159.1,27.12-159.21l-10.07,0
			c0,0-26.45,155.9-27.12,159.21H148.1z"/>
	</g>
</g>
<path class="Styl_x0020_grafiki_x0020_1986" d="M252.57,378.17L221.9,259.99c-0.68-2.63-4.22-3.09-5.55-0.73l-1.36,2.41
	l27.97,116.49H252.57z"/>
<path class="Styl_x0020_grafiki_x0020_1991" d="M213.47,87.48h26V49.29c0-11.58-9.47-21.05-21.05-21.05h-4.95
	c-11.58,0-21.05,9.47-21.05,21.05v17.14C192.42,78.01,201.89,87.48,213.47,87.48z"/>
<path class="Styl_x0020_grafiki_x0020_1990" d="M202.48,66.43V49.29c0-10.72,8.13-19.63,18.53-20.88c-0.83-0.1-1.67-0.17-2.53-0.17
	h-4.95c-11.58,0-21.05,9.47-21.05,21.05v17.14c0,11.58,9.47,21.05,21.05,21.05h10C211.95,87.48,202.48,78.01,202.48,66.43z"/>
<path class="st2" d="M388.46,242.62H41.54c-1.93,0-3.5-1.57-3.5-3.5s1.57-3.5,3.5-3.5h346.92c1.93,0,3.5,1.57,3.5,3.5
	S390.4,242.62,388.46,242.62z"/>
<rect x="68.28" y="196.28" class="Styl_x0020_grafiki_x0020_1987" width="38.67" height="85.69"/>
<rect x="323.05" y="196.28" class="Styl_x0020_grafiki_x0020_1987" width="38.67" height="85.69"/>
<path class="st1" d="M78.28,278.96v-79.69c0-1.66,1.34-3,3-3H68.33v85.69h12.95C79.62,281.96,78.28,280.62,78.28,278.96z"/>
<path class="st1" d="M333.05,278.96v-79.69c0-1.66,1.34-3,3-3h-12.95v85.69h12.95C334.4,281.96,333.05,280.62,333.05,278.96z"/>
<path class="st17" d="M239.53,51.14V49.2c0-0.51-0.04-1.02-0.08-1.53c-0.04-0.45-0.09-0.89-0.15-1.33
	c-1.45-10.2-10.24-18.11-20.82-18.11h-4.95c-10.06,0-18.52,7.15-20.57,16.62c-0.6,3.42-0.44,6.33-0.48,7.48v0.12
	c1.34-2,3.77-4.77,7.13-5.95c6.04-2.12,8.77,3.33,15.74,2.62c7.73-0.79,9.72-7.76,15.33-6.72C234.3,43.08,239.71,46,239.53,51.14z"
	/>
<path class="Styl_x0020_grafiki_x0020_1985" d="M199.6,46.5c1.15-0.41,2.19-0.53,3.15-0.48c1.45-9.21,8.93-16.48,18.24-17.62
	c-0.02,0-0.04-0.01-0.06-0.01c-0.31-0.04-0.62-0.06-0.92-0.09c-0.51-0.04-1.02-0.07-1.53-0.07h-4.95c-0.68,0-1.35,0.04-2.02,0.1
	c-0.22,0.02-0.44,0.06-0.65,0.09c-0.44,0.06-0.88,0.12-1.31,0.2c-0.25,0.05-0.5,0.11-0.75,0.17c-0.39,0.09-0.77,0.19-1.15,0.3
	c-0.26,0.08-0.52,0.16-0.77,0.24c-0.36,0.12-0.72,0.25-1.07,0.39c-0.25,0.1-0.51,0.2-0.76,0.31c-0.34,0.15-0.68,0.32-1.01,0.49
	c-0.24,0.12-0.48,0.24-0.72,0.37c-0.34,0.19-0.67,0.4-0.99,0.61c-0.21,0.13-0.43,0.26-0.64,0.4c-0.5,0.34-0.98,0.7-1.45,1.09
	c-0.23,0.19-0.44,0.39-0.65,0.58c-0.25,0.22-0.5,0.44-0.74,0.67c-0.24,0.23-0.46,0.48-0.68,0.72c-0.2,0.21-0.4,0.43-0.59,0.65
	c-0.23,0.26-0.44,0.54-0.65,0.81c-0.17,0.22-0.34,0.44-0.5,0.66c-0.21,0.29-0.41,0.59-0.6,0.89c-0.14,0.22-0.28,0.45-0.41,0.67
	c-0.19,0.32-0.38,0.64-0.55,0.97c-0.11,0.21-0.21,0.43-0.32,0.65c-0.17,0.36-0.34,0.71-0.49,1.08c-0.07,0.17-0.12,0.34-0.19,0.51
	c-0.37,0.96-0.68,1.96-0.9,2.98c-0.6,3.42-0.44,6.33-0.48,7.48v0.12C193.81,50.46,196.24,47.68,199.6,46.5z"/>
<path class="st2" d="M239.48,90.98h-26c-13.54,0-24.55-11.01-24.55-24.55V49.29c0-13.54,11.01-24.55,24.55-24.55h4.95
	c13.54,0,24.55,11.01,24.55,24.55v38.19C242.98,89.41,241.41,90.98,239.48,90.98z M213.47,31.73c-9.68,0-17.55,7.87-17.55,17.55
	v17.14c0,9.68,7.87,17.55,17.55,17.55h22.5V49.29c0-9.68-7.87-17.55-17.55-17.55H213.47z"/>
<path class="st2" d="M106.95,285.46H68.28c-1.93,0-3.5-1.57-3.5-3.5v-85.69c0-1.93,1.57-3.5,3.5-3.5h38.67c1.93,0,3.5,1.57,3.5,3.5
	v85.69C110.45,283.9,108.88,285.46,106.95,285.46z M71.78,278.46h31.67v-78.69H71.78V278.46z"/>
<path class="st2" d="M361.72,285.46h-38.67c-1.93,0-3.5-1.57-3.5-3.5v-85.69c0-1.93,1.57-3.5,3.5-3.5h38.67c1.93,0,3.5,1.57,3.5,3.5
	v85.69C365.22,283.9,363.65,285.46,361.72,285.46z M326.55,278.46h31.67v-78.69h-31.67V278.46z"/>
<path class="st2" d="M302.99,394.01c-2.12-8.73-13.4-15.41-17.92-17.97c-2.24-12.84-18.1-106.88-26.65-157.66
	c-0.28-1.69-1.74-2.92-3.45-2.92l-79.86-0.01c0,0,0,0,0,0c-1.71,0-3.17,1.23-3.45,2.91c-8.62,50.79-24.59,144.81-26.84,157.67
	c-4.53,2.56-15.8,9.24-17.92,17.97c-0.81,3.34-0.2,6.69,1.76,9.68c0.65,0.98,1.75,1.58,2.92,1.58h47.36c3.02,0,5.62-2.05,6.32-4.98
	l5.11-21.3l24.57-102.32l24.56,102.29c0,0.01,0,0.02,0,0.03l5.67,23.6c0.38,1.57,1.79,2.68,3.4,2.68h49.73
	c1.18,0,2.28-0.59,2.92-1.58C303.19,400.7,303.8,397.35,302.99,394.01z M296.14,398.27h-44.81l-5.02-20.89c0-0.01,0-0.02,0-0.03
	l-27.97-116.49c-0.38-1.57-1.79-2.68-3.4-2.68s-3.03,1.11-3.4,2.68l-27.97,116.49l-5.02,20.92h-44.81c-0.26-0.84-0.27-1.7-0.05-2.6
	c0.69-2.82,3.87-7.52,15.15-13.86c0.39-0.22,0.77-0.44,1.13-0.69c0.09-0.06,0.18-0.12,0.26-0.19c0.01-0.01,0.02-0.01,0.03-0.02
	c0.12-0.09,0.23-0.19,0.33-0.3c0.06-0.06,0.12-0.12,0.17-0.19c0.03-0.04,0.07-0.08,0.1-0.12c0.33-0.41,0.57-0.91,0.67-1.55
	c0.02-0.11,0.04-0.21,0.05-0.32c0-0.02,0.01-0.03,0.01-0.05c0.01-0.15,0.01-0.3,0-0.45c2.16-12.22,22.88-134.3,26.48-155.47
	l73.95,0.01c3.56,21.17,24.09,142.99,26.28,155.43c0,0.02,0,0.05,0,0.07c-0.01,0.14-0.01,0.27,0,0.41c0,0.05,0.01,0.08,0.02,0.13
	c0.01,0.1,0.03,0.2,0.04,0.3c0.03,0.19,0.08,0.37,0.14,0.54c0.01,0.02,0.01,0.05,0.02,0.07c0.18,0.47,0.44,0.86,0.77,1.18
	c0.03,0.03,0.05,0.07,0.08,0.1c0.07,0.06,0.15,0.11,0.22,0.17c0.04,0.04,0.09,0.07,0.13,0.1c0.09,0.06,0.17,0.13,0.26,0.19
	c0.34,0.23,0.7,0.44,1.06,0.64c11.28,6.35,14.47,11.04,15.15,13.86C296.4,396.57,296.39,397.42,296.14,398.27z"/>
<path class="st4" d="M175.11,112.93l0.04,106.02h79.73V112.93c-13.13,0-26.74-4.91-39.87-4.91
	C201.55,108.02,188.57,112.93,175.11,112.93z"/>
<path class="st4" d="M214.95,108.02c11.32,0,22.64,0.65,33.93,1.97c18.59,2.17,32.54,18.06,32.54,36.78V256.4
	c0,1.1-0.87,1.99-1.97,2c-6.15,0.05-24.61-1.82-24.61-26.25l0-82.88"/>
<path class="st5" d="M279.52,258.4c0.48-0.01,0.92-0.2,1.26-0.49c-3.09-1.9-15.92-10.71-15.92-25.76v-81.3
	c0-0.87-0.71-1.58-1.58-1.58h-6.83c-0.78,0-1.42,0.57-1.55,1.31v81.58c0,19.81,12.13,24.79,20.01,25.93c0.02,0,0.05,0.01,0.07,0.01
	c0.26,0.04,0.52,0.07,0.77,0.1c0.07,0.01,0.13,0.02,0.2,0.02c0.23,0.03,0.46,0.05,0.68,0.07c0.08,0.01,0.15,0.01,0.23,0.02
	c0.21,0.02,0.42,0.03,0.61,0.04c0.07,0,0.15,0.01,0.22,0.01c0.29,0.02,0.56,0.03,0.82,0.03c0.15,0,0.3,0.01,0.45,0.01
	c0.08,0,0.16,0,0.24,0C279.29,258.4,279.4,258.4,279.52,258.4z"/>
<path class="st4" d="M215,108.02c-11.32,0-22.64,0.65-33.93,1.97c-18.59,2.17-32.54,18.06-32.54,36.78V258.3
	c0,0,26.58,3.16,26.58-26.15l0-82.88"/>
<path class="st5" d="M172.11,149.26h-4c-1.66,0-3,1.34-3,3v79.88c0,14.47-11.87,23.18-15.52,25.51c0.54,0.46,1.24,0.74,2,0.72
	c0.09,0,0.18-0.01,0.28-0.01c0.1,0,0.19-0.01,0.29-0.01c0.17-0.01,0.34-0.02,0.51-0.03c0.09-0.01,0.18-0.01,0.28-0.02
	c0.25-0.02,0.5-0.04,0.76-0.07c0.03,0,0.06,0,0.09-0.01c0.29-0.03,0.59-0.06,0.89-0.1c0.09-0.01,0.19-0.03,0.29-0.04
	c0.22-0.03,0.43-0.06,0.65-0.1c0.12-0.02,0.24-0.04,0.36-0.06c0.2-0.04,0.41-0.07,0.62-0.12c0.13-0.03,0.26-0.05,0.39-0.08
	c0.21-0.04,0.42-0.09,0.63-0.14c0.13-0.03,0.27-0.06,0.4-0.1c0.22-0.06,0.44-0.12,0.67-0.18c0.13-0.04,0.25-0.07,0.38-0.11
	c0.28-0.08,0.56-0.17,0.84-0.27c0.07-0.02,0.15-0.05,0.22-0.07c0.35-0.12,0.71-0.25,1.06-0.4c0.1-0.04,0.19-0.08,0.29-0.12
	c0.26-0.11,0.52-0.22,0.78-0.34c0.13-0.06,0.26-0.12,0.39-0.19c0.23-0.11,0.45-0.22,0.68-0.34c0.14-0.07,0.28-0.15,0.41-0.22
	c0.22-0.12,0.44-0.25,0.65-0.38c0.14-0.08,0.28-0.17,0.41-0.25c0.22-0.14,0.44-0.29,0.66-0.44c0.13-0.09,0.25-0.17,0.38-0.26
	c0.25-0.18,0.5-0.37,0.74-0.57c0.09-0.07,0.18-0.14,0.27-0.21c0.33-0.27,0.66-0.56,0.98-0.86c0.07-0.07,0.14-0.14,0.21-0.21
	c0.25-0.24,0.49-0.48,0.73-0.73c0.11-0.12,0.22-0.24,0.32-0.36c0.2-0.22,0.39-0.44,0.58-0.68c0.11-0.14,0.23-0.29,0.34-0.43
	c0.18-0.23,0.35-0.47,0.52-0.71c0.11-0.16,0.22-0.31,0.33-0.48c0.17-0.26,0.33-0.52,0.49-0.79c0.1-0.16,0.19-0.32,0.29-0.49
	c0.17-0.31,0.34-0.63,0.5-0.96c0.07-0.14,0.15-0.28,0.21-0.42c0.23-0.48,0.44-0.97,0.65-1.48c0.03-0.07,0.05-0.16,0.08-0.23
	c0.17-0.44,0.33-0.9,0.48-1.37c0.06-0.19,0.11-0.39,0.17-0.58c0.11-0.37,0.22-0.75,0.32-1.15c0.06-0.23,0.11-0.46,0.16-0.7
	c0.09-0.38,0.17-0.76,0.24-1.16c0.05-0.25,0.09-0.51,0.13-0.76c0.07-0.41,0.12-0.82,0.18-1.25c0.03-0.26,0.07-0.52,0.09-0.78
	c0.05-0.47,0.09-0.96,0.12-1.45c0.02-0.24,0.04-0.47,0.05-0.71c0.04-0.74,0.06-1.5,0.06-2.28v-79.88
	C175.11,150.61,173.77,149.26,172.11,149.26z"/>
<path class="st2" d="M279.19,261.9c-4.77,0-13.43-1.02-19.98-7.51c-5.22-5.18-7.87-12.66-7.87-22.24v-82.88c0-1.93,1.57-3.5,3.5-3.5
	s3.5,1.57,3.5,3.5v82.88c0,7.64,1.95,13.45,5.8,17.27c4.34,4.3,10.33,5.27,13.78,5.45v-108.1c0-17.03-12.66-31.35-29.45-33.31
	c-11.11-1.29-22.39-1.99-33.52-1.94c0,0,0,0,0,0c-1.93,0-3.5-1.57-3.5-3.5c0-1.93,1.57-3.5,3.5-3.5c0.04,0,0.08,0,0.13,0
	c11.37,0,22.87,0.67,34.21,1.99c20.32,2.37,35.64,19.68,35.64,40.26V256.4c0,3.01-2.44,5.48-5.44,5.5
	C279.38,261.9,279.28,261.9,279.19,261.9z"/>
<path class="st2" d="M150.74,261.9c-1.52,0-2.48-0.11-2.62-0.12c-1.76-0.21-3.09-1.7-3.09-3.48V146.77
	c0-20.58,15.32-37.89,35.64-40.26c11.37-1.33,22.97-2,34.33-1.99c1.93,0,3.5,1.57,3.5,3.5c0,1.93-1.57,3.5-3.5,3.5
	c-0.06-0.02-0.08,0-0.12,0c-11.1,0-22.33,0.65-33.4,1.94c-16.79,1.96-29.45,16.28-29.45,33.31v108.1c3.4-0.17,8.93-1.08,13.17-4.87
	c4.25-3.8,6.41-9.81,6.41-17.84v-82.88c0-1.93,1.57-3.5,3.5-3.5s3.5,1.57,3.5,3.5v82.88c0,10.15-2.96,17.93-8.8,23.11
	C163.26,261.08,154.92,261.9,150.74,261.9z"/>
</svg>
