<?xml version="1.0" encoding="utf-8"?>
<!-- Generator: Adobe Illustrator 26.3.1, SVG Export Plug-In . SVG Version: 6.00 Build 0)  -->
<svg version="1.1" id="Warstwa_1" xmlns="http://www.w3.org/2000/svg" xmlns:xlink="http://www.w3.org/1999/xlink" x="0px" y="0px"
	 viewBox="0 0 430 430" style="enable-background:new 0 0 430 430;" xml:space="preserve">
<style type="text/css">
	.Styl_x0020_grafiki_x0020_2312{opacity:0.5;fill:#ee8f66;}
	.Styl_x0020_grafiki_x0020_2344{opacity:0.5;fill:#000000;}
	.Styl_x0020_grafiki_x0020_2372{fill:#3a3347;}
	.Styl_x0020_grafiki_x0020_2373{fill:#000000;}
	.Styl_x0020_grafiki_x0020_2374{opacity:0.5;fill:#3a3347;}
	.Styl_x0020_grafiki_x0020_2375{fill:#3a3347;}
	.Styl_x0020_grafiki_x0020_2376{fill:#e83a30;}
	.Styl_x0020_grafiki_x0020_2377{opacity:0.5;fill:#e83a30;}
	.Styl_x0020_grafiki_x0020_2378{opacity:0.5;fill:#000000;}
	.Styl_x0020_grafiki_x0020_2379{fill:#3a3347;}
	.Styl_x0020_grafiki_x0020_2380{fill:#ee8f66;}
	.st0{fill:#000000;}
	.st1{opacity:0.5;fill:#000000;}
	.st2{fill:#121331;}
	.st3{fill:#3a3347;}
	.st4{fill:#e83a30;}
	.st5{opacity:0.5;fill:#e83a30;}
	.st6{opacity:0.5;fill:#3a3347;}
	.st7{fill:none;stroke:#121331;stroke-width:7;stroke-linecap:round;stroke-linejoin:round;stroke-miterlimit:10;}
	.st8{opacity:0.5;}
	.st9{fill:#EBE6EF;}
	.st10{opacity:0.5;fill:#EBE6EF;}
	.st11{fill:#ee8f66;}
	.st12{fill:#2CA58D;}
	.st13{opacity:0.5;fill:#2CA58D;}
	.st14{opacity:0.5;fill:#ee8f66;}
	.st15{fill:#F24C00;}
	.st16{opacity:0.5;fill:#F24C00;}
	.st17{fill:#000000;}
	.st18{opacity:0.5;fill:#000000;}
	.st19{fill:#FFFFFF;}
	.st20{fill:#F7F8F9;}
	.st21{fill:#FBFAFC;}
	.st22{fill:#FFC738;}
	.st23{opacity:0.5;fill:#FFC738;}
	.st24{fill:#FCFCFC;}
	.st25{fill:#92140C;}
	.st26{fill:#F28BA8;}
	.st27{opacity:0.5;fill:#F28BA8;}
	.st28{opacity:0.25;fill:#ee8f66;}
	.st29{opacity:0.5;fill:#92140C;}
	.st30{opacity:0.1;fill:#3a3347;}
	.st31{fill:none;stroke:#08A88A;stroke-width:12;stroke-linecap:round;stroke-linejoin:round;stroke-miterlimit:10;}
	.st32{fill:none;stroke:#121331;stroke-width:12;stroke-linecap:round;stroke-linejoin:round;stroke-miterlimit:10;}
	.st33{fill:none;stroke:#000000;stroke-width:7;stroke-linecap:round;stroke-linejoin:round;stroke-miterlimit:10;}
	.st34{fill:#08A88A;}
	.st35{fill:none;stroke:#EBE6EF;stroke-width:7;stroke-linecap:round;stroke-linejoin:round;stroke-miterlimit:10;}
	.st36{fill:#08A789;}
	.st37{fill:none;stroke:#F28BA8;stroke-width:7;stroke-linecap:round;stroke-linejoin:round;stroke-miterlimit:10;}
	.st38{fill:none;stroke:#FFC738;stroke-width:7;stroke-linecap:round;stroke-linejoin:round;stroke-miterlimit:10;}
	.st39{fill:none;stroke:#3a3347;stroke-width:7;stroke-linecap:round;stroke-linejoin:round;stroke-miterlimit:10;}
</style>
<path class="Styl_x0020_grafiki_x0020_2379" d="M127.46,220.65l2.98,181.25h53.99c8.3-13.1-17.48-25.74-17.48-25.74l6.21-155.52"/>
<polygon class="Styl_x0020_grafiki_x0020_2374" points="130.19,375.74 166.96,375.74 173.15,220.63 127.46,220.65 "/>
<path class="st2" d="M166.96,379.24c-0.05,0-0.09,0-0.14,0c-1.93-0.08-3.43-1.71-3.36-3.64l6.04-151.46l-38.49,0.01l2.67,151.53
	c0.03,1.93-1.5,3.53-3.44,3.56c-0.02,0-0.04,0-0.06,0c-1.9,0-3.46-1.53-3.5-3.44l-2.74-155.09c-0.02-0.94,0.34-1.84,1-2.51
	c0.66-0.67,1.56-1.05,2.5-1.05l45.69-0.01h0c0.95,0,1.86,0.39,2.52,1.07c0.66,0.69,1.01,1.61,0.97,2.57l-6.19,155.1
	C170.38,377.76,168.83,379.24,166.96,379.24z"/>
<path class="Styl_x0020_grafiki_x0020_2380" d="M162.34,86.83l21.95,0.3c3.13,0.04,5.73-2.48,5.77-5.61l0.46-34.04
	c0.14-10.47-8.3-19.14-18.77-19.29l-8.62-0.12c-10.47-0.14-19.14,8.3-19.29,18.77l-0.28,20.71
	C143.43,78.01,151.88,86.69,162.34,86.83z"/>
<path class="Styl_x0020_grafiki_x0020_2376" d="M191.42,220.66h-64v-75.71c0-17.67,14.33-32,32-32h0c17.67,0,32,14.33,32,32V220.66z
	"/>
<path class="Styl_x0020_grafiki_x0020_2377" d="M142.42,145.85c0-15.53,10.47-28.53,24.55-31.98c-2.42-0.59-4.95-0.91-7.55-0.91h0
	c-17.67,0-32,14.33-32,32v75.71h15V145.85z"/>
<path class="Styl_x0020_grafiki_x0020_2373" d="M130.19,375.74l0.25,26.16h61.2c8.23-13.09-24.5-25.71-24.5-25.71l0.01-0.45H130.19z
	"/>
<path class="Styl_x0020_grafiki_x0020_2378" d="M130.19,375.74l0.25,26.16h61.2c8.23-13.09-24.5-25.71-24.5-25.71l0.01-0.45H130.19z
	"/>
<path class="Styl_x0020_grafiki_x0020_2377" d="M176.42,145.85v26.09l-11.32-18.41c-1.18-1.92-3.99-1.9-5.14,0.05l-3.32,5.63
	c-0.57,0.96-0.55,2.15,0.03,3.1l23.16,37.6c0.29,0.47,0.45,1.02,0.45,1.57v19.19h11.15v-75.71L176.42,145.85z"/>
<path class="st17" d="M190.09,43.22c-1.83-8.46-9.32-14.91-18.33-15.03l-8.62-0.12c-10.47-0.14-19.14,8.3-19.29,18.77l-0.05,3.96
	c1.37-1.36,3.04-2.63,5.07-3.42c6.87-2.65,10.3,3.2,18.31,2.05c8.88-1.28,10.82-9.04,17.36-8.19
	C186.3,41.47,188.29,42.13,190.09,43.22z"/>
<path class="Styl_x0020_grafiki_x0020_2312" d="M153.5,72.9l0.36-26.06c0.13-9.73,7.64-17.7,17.1-18.66l-7.81-0.11
	c-10.47-0.14-19.14,8.3-19.29,18.77l-0.28,20.71c-0.13,9.31,6.55,17.19,15.39,18.92C155.53,82.97,153.43,78.16,153.5,72.9z"/>
<path class="Styl_x0020_grafiki_x0020_2344" d="M148.88,47.38c1.86-0.72,3.47-0.8,4.98-0.58c0.15-9.71,7.65-17.66,17.1-18.62
	l-7.81-0.11c-10.47-0.14-19.14,8.3-19.29,18.77l-0.05,3.96C145.17,49.44,146.85,48.17,148.88,47.38z"/>
<path class="st2" d="M191.42,224.16h-64c-1.93,0-3.5-1.57-3.5-3.5v-75.71c0-19.57,15.92-35.5,35.5-35.5
	c19.57,0,35.5,15.92,35.5,35.5v75.71C194.92,222.59,193.35,224.16,191.42,224.16z M130.92,217.16h57v-72.21
	c0-15.71-12.78-28.5-28.5-28.5c-15.71,0-28.5,12.78-28.5,28.5V217.16z"/>
<path class="st2" d="M191.64,405.4h-61.2c-1.92,0-3.48-1.55-3.5-3.47l-0.25-26.16c-0.02-1.93,1.53-3.51,3.47-3.53
	c0.01,0,0.02,0,0.03,0c1.92,0,3.48,1.54,3.5,3.47l0.21,22.69h55.47c0.17-0.76,0.11-1.53-0.17-2.37
	c-2.1-6.33-15.42-13.53-23.32-16.57c-1.37-0.53-2.27-1.86-2.24-3.33l0.01-0.45c0.04-1.91,1.6-3.43,3.5-3.43c0.02,0,0.05,0,0.07,0
	c1.06,0.02,2,0.51,2.62,1.26c5.45,2.26,22.61,10.09,26.01,20.32c1.13,3.41,0.7,6.84-1.24,9.94
	C193.96,404.78,192.84,405.4,191.64,405.4z"/>
<path class="Styl_x0020_grafiki_x0020_2376" d="M188.38,131.33l27.65,51.61l50.83-16.82c0,0,4,26.31-15.87,32.41l-35.01,11.92
	c-7.52,2.56-15.81-0.41-20-7.16l-33.5-54.02"/>
<path class="st2" d="M210.43,214.89c-6.95,0-13.57-3.54-17.42-9.74l-33.5-54.02c-1.02-1.64-0.51-3.8,1.13-4.82
	c1.64-1.02,3.8-0.51,4.82,1.13l33.5,54.02c3.35,5.4,9.88,7.74,15.89,5.69l35.01-11.92c0.03-0.01,0.07-0.02,0.1-0.03
	c12.37-3.8,13.83-17.35,13.72-24.33l-46.56,15.4c-1.61,0.53-3.38-0.17-4.18-1.67l-27.65-51.61c-0.91-1.7-0.27-3.83,1.43-4.74
	c1.71-0.92,3.83-0.27,4.74,1.43l26.26,49.02l48.04-15.89c0.98-0.32,2.05-0.2,2.93,0.34c0.88,0.54,1.48,1.44,1.63,2.46
	c1.54,10.12-0.3,30.72-18.25,36.27l-34.96,11.9C214.91,214.53,212.65,214.89,210.43,214.89z"/>
<path class="st2" d="M184.38,90.64c-0.04,0-0.09,0-0.13,0l-21.95-0.3c-6-0.08-11.62-2.51-15.82-6.83c-4.21-4.32-6.48-10.01-6.4-16
	l0.28-20.71c0.08-6,2.51-11.62,6.83-15.82c4.32-4.21,10.01-6.49,16-6.4l8.62,0.12c6,0.08,11.62,2.51,15.82,6.83
	c4.21,4.32,6.48,10.01,6.4,16l-0.46,34.04c-0.03,2.45-1.02,4.74-2.79,6.46C189.05,89.71,186.78,90.63,184.38,90.64z M162.88,31.57
	c-4.05,0-7.88,1.56-10.81,4.42c-2.98,2.9-4.66,6.77-4.71,10.9l-0.28,20.71c-0.06,4.13,1.51,8.04,4.41,11.03
	c2.9,2.98,6.78,4.66,10.9,4.71l0,0l21.95,0.3c0.01,0,0.02,0,0.03,0c0.57,0,1.11-0.22,1.52-0.63c0.42-0.41,0.66-0.96,0.67-1.54
	l0.46-34.04c0.06-4.13-1.51-8.04-4.41-11.03c-2.9-2.98-6.77-4.66-10.9-4.71l-8.62-0.12C163.03,31.57,162.95,31.57,162.88,31.57z"/>
<polygon class="Styl_x0020_grafiki_x0020_2372" points="201.24,375.77 202.68,303.79 191.44,220.66 127.46,220.65 160.4,305.11 
	164.29,375.77 "/>
<path class="st2" d="M164.29,379.27c-1.84,0-3.39-1.44-3.49-3.31l-3.86-70.1l-32.74-83.94c-0.42-1.08-0.28-2.29,0.37-3.25
	c0.65-0.96,1.73-1.53,2.89-1.53h0l63.98,0.02c1.75,0,3.23,1.29,3.47,3.03l11.24,83.13c0.02,0.18,0.03,0.36,0.03,0.54l-1.44,71.98
	c-0.04,1.91-1.6,3.43-3.5,3.43c-0.02,0-0.05,0-0.07,0c-1.93-0.04-3.47-1.64-3.43-3.57l1.43-71.7l-10.8-79.83l-55.8-0.01l31.08,79.69
	c0.13,0.34,0.21,0.71,0.23,1.08l3.89,70.66c0.11,1.93-1.37,3.58-3.3,3.69C164.42,379.27,164.35,379.27,164.29,379.27z"/>
<path class="Styl_x0020_grafiki_x0020_2372" d="M201.23,376.22c0,0,25.86,9.97,25.83,21.38c0.08-11.41-25.76-21.38-25.83-21.41
	L201.23,376.22z"/>
<path class="Styl_x0020_grafiki_x0020_2373" d="M164.29,375.77l1.44,26.16h60.01c8.23-13.09-24.5-25.71-24.5-25.71l0.01-0.45H164.29
	z"/>
<path class="st2" d="M225.74,405.43h-60.01c-1.86,0-3.39-1.45-3.5-3.31l-1.44-26.16c-0.11-1.93,1.37-3.58,3.3-3.69
	c1.94-0.09,3.58,1.37,3.69,3.3l1.26,22.85h54.43c0.17-0.76,0.11-1.53-0.17-2.37c-2.1-6.33-15.42-13.53-23.32-16.57
	c-1.37-0.53-2.27-1.86-2.24-3.33l0.01-0.45c0.04-1.91,1.6-3.43,3.5-3.43c0.02,0,0.05,0,0.07,0c1.06,0.02,2,0.51,2.62,1.26
	c5.45,2.26,22.61,10.09,26.01,20.32c1.13,3.41,0.7,6.84-1.24,9.94C228.06,404.81,226.94,405.43,225.74,405.43z"/>
<circle class="Styl_x0020_grafiki_x0020_2375" cx="273.31" cy="173.17" r="29.27"/>
<path class="st2" d="M273.31,179.17c-0.39,0-0.78-0.04-1.17-0.12c-0.38-0.07-0.76-0.19-1.12-0.34c-0.37-0.15-0.72-0.33-1.04-0.55
	c-0.33-0.22-0.64-0.47-0.91-0.75c-0.28-0.27-0.53-0.58-0.75-0.91c-0.22-0.33-0.4-0.67-0.55-1.04c-0.15-0.36-0.27-0.74-0.34-1.12
	c-0.08-0.39-0.12-0.78-0.12-1.17c0-1.58,0.64-3.13,1.76-4.24c0.27-0.28,0.58-0.53,0.91-0.75c0.32-0.21,0.67-0.4,1.03-0.55
	c0.37-0.15,0.74-0.27,1.13-0.34c1.95-0.4,4.02,0.24,5.41,1.64c1.12,1.11,1.76,2.66,1.76,4.24c0,0.39-0.04,0.78-0.12,1.17
	c-0.08,0.38-0.19,0.76-0.34,1.12c-0.15,0.37-0.34,0.71-0.55,1.04c-0.22,0.33-0.47,0.64-0.75,0.91c-0.27,0.28-0.58,0.53-0.91,0.75
	s-0.67,0.4-1.04,0.55c-0.36,0.15-0.74,0.27-1.12,0.34C274.1,179.13,273.7,179.17,273.31,179.17z"/>
<path class="Styl_x0020_grafiki_x0020_2374" d="M259.04,173.17c0-13.57,9.24-24.98,21.77-28.29c-2.39-0.63-4.91-0.97-7.5-0.97
	c-16.16,0-29.27,13.1-29.27,29.27s13.1,29.27,29.27,29.27c2.59,0,5.11-0.34,7.5-0.97C268.28,198.15,259.04,186.75,259.04,173.17z"/>
<path class="st2" d="M273.31,205.94c-18.07,0-32.77-14.7-32.77-32.77s14.7-32.77,32.77-32.77s32.77,14.7,32.77,32.77
	S291.38,205.94,273.31,205.94z M273.31,147.41c-14.21,0-25.77,11.56-25.77,25.77s11.56,25.77,25.77,25.77s25.77-11.56,25.77-25.77
	S287.52,147.41,273.31,147.41z"/>
</svg>
