<?xml version="1.0" encoding="utf-8"?>
<!-- Generator: Adobe Illustrator 24.0.2, SVG Export Plug-In . SVG Version: 6.00 Build 0)  -->
<svg version="1.1" id="Warstwa_1" xmlns="http://www.w3.org/2000/svg" xmlns:xlink="http://www.w3.org/1999/xlink" x="0px" y="0px"
	 viewBox="0 0 430 430" style="enable-background:new 0 0 430 430;" xml:space="preserve">
<style type="text/css">
	.st0{fill:#3A3347;}
	.st1{display:none;}
	.st2{display:inline;fill:none;stroke:#c71f16;stroke-width:7;stroke-linecap:round;stroke-linejoin:round;}
	.st3{display:none;fill:none;stroke:#c71f16;stroke-width:7;stroke-linecap:round;stroke-linejoin:round;stroke-miterlimit:10;}
	.st4{fill:#ebe6ef;}
	.st5{opacity:0.5;}
	.st6{fill:#4BB3FD;}
	.st7{fill:#c71f16;}
	.st8{fill:#181730;}
	.st9{fill:#F9C9C0;}
	.st10{opacity:0.4;}
	.st11{fill:#e83a30;}
	.st12{fill:#A3A2A2;}
	.st13{fill:#FFC738;}
	.st14{fill:#2CA58D;}
	.st15{opacity:0.6;}
	.st16{fill:#F28BA8;}
	.st17{fill:#08A88A;}
	.st18{fill:#B26836;}
	.st19{fill:#92140C;}
	.st20{fill:#F24C00;}
	.st21{fill:none;stroke:#F9C9C0;stroke-width:12;stroke-linecap:square;stroke-linejoin:round;}
	.st22{opacity:0.3;}
	.st23{opacity:0.85;}
	.st24{fill:#FFFFFF;}
	.st25{fill:none;stroke:#c71f16;stroke-width:7;stroke-linecap:round;stroke-linejoin:round;stroke-miterlimit:10;}
	.st26{opacity:0.8;}
</style>
<g>
	<g>
		<rect x="31.37" y="203.5" class="st4" width="367.26" height="23"/>
		<path class="st7" d="M399.13,227H30.87v-24h368.26V227z M31.87,226h366.26v-22H31.87V226z"/>
	</g>
</g>
<g>
	<g>
		<path class="st0" d="M398.63,230H31.37c-1.93,0-3.5-1.57-3.5-3.5v-23c0-1.93,1.57-3.5,3.5-3.5h367.26c1.93,0,3.5,1.57,3.5,3.5v23
			C402.13,228.43,400.56,230,398.63,230z M34.87,223h360.26v-16H34.87V223z"/>
	</g>
</g>
<g>
	<rect x="78.08" y="141.31" class="st11" width="43.41" height="147.1"/>
</g>
<g>
	<rect x="308.51" y="141.31" class="st11" width="43.41" height="147.1"/>
</g>
<g class="st5">
	<rect x="78.08" y="141.31" class="st11" width="16.73" height="147.1"/>
</g>
<g class="st5">
	<rect x="335.19" y="141.31" class="st11" width="16.73" height="147.1"/>
</g>
<g>
	<rect x="53.87" y="169.1" class="st11" width="24.21" height="91.8"/>
</g>
<g>
	<rect x="351.92" y="169.1" class="st11" width="24.21" height="91.8"/>
</g>
<g>
	<path class="st7" d="M121.49,291.9H78.08c-1.93,0-3.5-1.57-3.5-3.5v-147.1c0-1.93,1.57-3.5,3.5-3.5h43.41c1.93,0,3.5,1.57,3.5,3.5
		v147.1C124.99,290.34,123.42,291.9,121.49,291.9z M81.58,284.9h36.41v-140.1H81.58V284.9z"/>
</g>
<g>
	<path class="st7" d="M351.92,291.9h-43.41c-1.93,0-3.5-1.57-3.5-3.5v-147.1c0-1.93,1.57-3.5,3.5-3.5h43.41c1.93,0,3.5,1.57,3.5,3.5
		v147.1C355.42,290.34,353.85,291.9,351.92,291.9z M312.01,284.9h36.41v-140.1h-36.41V284.9z"/>
</g>
<g>
	<path class="st7" d="M78.08,264.4H53.87c-1.93,0-3.5-1.57-3.5-3.5v-91.8c0-1.93,1.57-3.5,3.5-3.5h24.21c1.93,0,3.5,1.57,3.5,3.5
		v91.8C81.58,262.83,80.01,264.4,78.08,264.4z M57.37,257.4h17.21v-84.8H57.37V257.4z"/>
</g>
<g>
	<path class="st7" d="M376.13,264.4h-24.21c-1.93,0-3.5-1.57-3.5-3.5v-91.8c0-1.93,1.57-3.5,3.5-3.5h24.21c1.93,0,3.5,1.57,3.5,3.5
		v91.8C379.63,262.83,378.06,264.4,376.13,264.4z M355.42,257.4h17.21v-84.8h-17.21V257.4z"/>
</g>
</svg>
