<svg xmlns="http://www.w3.org/2000/svg" viewBox="0 0 430 430">
  <defs>
    <style>
      .cls-1 {
        isolation: isolate;
      }

      .cls-2 {
        fill: #b26836;
      }

      .cls-3 {
        fill: #3a3347;
      }

      .cls-4 {
        fill: #393247;
        mix-blend-mode: multiply;
        opacity: 0.5;
      }

      .cls-5 {
        fill: #000000;
      }

      .cls-6 {
        fill: #e83a30;
      }

      .cls-7 {
        fill: #121331;
      }
    </style>
  </defs>
  <g class="cls-1">
    <g id="Warstwa_1" data-name="Warstwa 1">
      <g>
        <path class="cls-2" d="M212.33,48.14h4.4a21.05,21.05,0,0,1,21.05,21.05v31.2a6.3,6.3,0,0,1-6.3,6.3H212.33a21.05,21.05,0,0,1-21.05-21.05V69.19a21.05,21.05,0,0,1,21.05-21.05Z" transform="translate(-3.96 12) rotate(-3.17)"/>
        <path class="cls-3" d="M237.38,69.19c-.75-2-1.76-5.7-8.12-9.13-7-3.76-12.89,8.58-20.89,5.51-9.85-3.79-16.09,0-17.45,6a26.62,26.62,0,0,1-.06-3.43,21,21,0,0,1,20.57-19.89l3.13-.16a21,21,0,0,1,20.49,11.4A23.3,23.3,0,0,1,237.38,69.19Z"/>
        <path class="cls-4" d="M237.38,69.19c-.75-2-1.76-5.7-8.12-9.13-7-3.76-12.89,8.58-20.89,5.51-9.85-3.79-16.09,0-17.45,6a26.62,26.62,0,0,1-.06-3.43,21,21,0,0,1,20.57-19.89l3.13-.16a21,21,0,0,1,20.49,11.4A23.3,23.3,0,0,1,237.38,69.19Z"/>
        <polyline class="cls-3" points="226.57 370.67 275.74 309.33 264.69 222.47 186.03 226.84 166.07 291.15 124.34 309.39 137.77 339.5 191.95 316.78 224.53 257.74 224.53 257.74 235.09 303.31 200.35 348.92"/>
        <path class="cls-5" d="M226.57,370.67s16.11,18.11-1.08,36.36l-41.56-36.54,16.42-21.57Z"/>
        <path class="cls-5" d="M137.77,339.5s4.08,26-16.09,32c-.09,0-23.87-50.5-23.87-50.5l26.53-11.6Z"/>
        <path class="cls-6" d="M260.65,149.75,336,31s-22.7-21.8-37,6.38l-58.22,87.17L199,126.88,131.49,46.67C114.16,20.26,94,44.43,94,44.43l88,109.69h0L186,226.84l78.66-4.37-4-72.71Z"/>
        <g>
          <path class="cls-7" d="M212.78,110.22A24.58,24.58,0,0,1,188.28,87l-.91-16.43a24.57,24.57,0,0,1,23.15-25.87l4.4-.24a24.56,24.56,0,0,1,25.87,23.15l1.73,31.16a9.81,9.81,0,0,1-9.24,10.32l-19.13,1.06C213.69,110.21,213.23,110.22,212.78,110.22Zm1.18-3.53h0Zm2.33-55.24-1,0-4.39.24a17.57,17.57,0,0,0-16.55,18.5l.91,16.42a17.55,17.55,0,0,0,18.49,16.55l19.13-1.06a2.8,2.8,0,0,0,2.64-2.95L233.8,68A17.58,17.58,0,0,0,216.29,51.45Z"/>
          <path class="cls-7" d="M338.94,32.88a3.51,3.51,0,0,0-.53-4.4c-.46-.44-11.47-10.85-24-8.73C306.9,21,300.7,26.36,296,35.61l-57.14,85.56-38.24,2.12L134.3,44.58c-5.74-8.67-12.49-13.29-20.07-13.73-12.7-.72-22.49,10.84-22.9,11.34a3.5,3.5,0,0,0,0,4.43l87.25,108.82,4,71-19.3,62.19L96.4,317.78a3.51,3.51,0,0,0-1.76,4.7s6,12.63,11.91,25.26c3,6.32,6,12.64,8.2,17.37,1.12,2.37,2.06,4.35,2.72,5.73,1.11,2.3,2,4.2,4,4.2a3.91,3.91,0,0,0,1.2-.2c16.73-5,19.69-22.5,18.87-33.13L193.31,320a3.56,3.56,0,0,0,1.71-1.54l28.17-51,8.12,35.06-50.16,65.87a3.49,3.49,0,0,0,.47,4.75l41.56,36.55a3.45,3.45,0,0,0,2.31.87,3.5,3.5,0,0,0,2.55-1.1c13.84-14.7,8.76-30.58,3-38.74l47.43-59.17a3.51,3.51,0,0,0,.74-2.63l-11-86.72-4-71.49ZM98.68,44.65c2.92-2.72,8.75-7.19,15.18-6.81,5.28.32,10.23,3.94,14.71,10.75a2.7,2.7,0,0,0,.25.34l67.52,80.2c0,.05.09.08.13.13a2.23,2.23,0,0,0,.27.26,2.43,2.43,0,0,0,.25.2,2.82,2.82,0,0,0,.29.18,1.91,1.91,0,0,0,.28.15l.33.13.3.09c.11,0,.23,0,.34.06l.33,0,.15,0h.2l41.73-2.31.22,0a2.2,2.2,0,0,0,.37-.06,3,3,0,0,0,.32-.09,3,3,0,0,0,.32-.12,2.11,2.11,0,0,0,.3-.16,2.82,2.82,0,0,0,.29-.18,2.78,2.78,0,0,0,.27-.21c.08-.08.17-.15.24-.23a3.47,3.47,0,0,0,.25-.29c0-.06.1-.11.14-.17l58.22-87.18a2.6,2.6,0,0,0,.21-.36c3.7-7.27,8.22-11.41,13.44-12.31,6.37-1.09,12.64,2.7,15.84,5.08L257.7,147.87l0,.06c-.06.1-.1.2-.15.3s-.11.21-.15.32a1.57,1.57,0,0,0-.08.31,2.25,2.25,0,0,0-.09.35,1.62,1.62,0,0,0,0,.31c0,.13,0,.25,0,.37V150L261,219.17l-71.67,4-3.87-69.22a.09.09,0,0,1,0-.05,3.07,3.07,0,0,0-.07-.42,1.09,1.09,0,0,0,0-.26,1.82,1.82,0,0,0-.11-.3,3.62,3.62,0,0,0-.13-.35l-.12-.18a3.54,3.54,0,0,0-.26-.41l0,0ZM223.84,368.48A3.51,3.51,0,0,0,224,373c.53.61,12.3,14.37,1.18,29.07l-36.44-32,49.18-64.58a3.49,3.49,0,0,0,.63-2.91L227.94,257a.32.32,0,0,0,0-.09,2.06,2.06,0,0,0-.12-.35c0-.1-.07-.2-.11-.3s-.12-.2-.18-.3-.11-.19-.18-.28-.15-.17-.22-.26l-.24-.24-.26-.2a3.13,3.13,0,0,0-.3-.2l-.07-.06-.22-.09-.33-.14-.33-.09-.33-.07-.35,0h-.33l-.37.05-.23,0-.08,0a2.06,2.06,0,0,0-.35.12c-.1,0-.21.07-.31.12l-.28.16a2.9,2.9,0,0,0-.29.19l-.24.21c-.09.09-.18.16-.26.25s-.13.17-.19.25a3.46,3.46,0,0,0-.22.31.35.35,0,0,1-.05.08l-32,58-53.05,22.25a3.52,3.52,0,0,0-2.11,3.77c.14.88,3,20.55-10.87,27-3.54-7.44-13.39-28.32-20.93-44.33l65-28.4a3.51,3.51,0,0,0,1.94-2.17l19.24-62,73-4,10.46,82.15Z"/>
        </g>
      </g>
    </g>
  </g>
</svg>
